<svg id="visual" viewBox="0 0 900 600" width="900" height="600" xmlns="http://www.w3.org/2000/svg" xmlns:xlink="http://www.w3.org/1999/xlink" version="1.1"><rect x="0" y="0" width="900" height="600" fill="#4C0033"></rect><defs><linearGradient id="grad1_0" x1="33.3%" y1="100%" x2="100%" y2="0%"><stop offset="20%" stop-color="#e80f88" stop-opacity="1"></stop><stop offset="80%" stop-color="#e80f88" stop-opacity="1"></stop></linearGradient></defs><defs><linearGradient id="grad1_1" x1="33.3%" y1="100%" x2="100%" y2="0%"><stop offset="20%" stop-color="#e80f88" stop-opacity="1"></stop><stop offset="80%" stop-color="#95055f" stop-opacity="1"></stop></linearGradient></defs><defs><linearGradient id="grad1_2" x1="33.3%" y1="100%" x2="100%" y2="0%"><stop offset="20%" stop-color="#4c0033" stop-opacity="1"></stop><stop offset="80%" stop-color="#95055f" stop-opacity="1"></stop></linearGradient></defs><defs><linearGradient id="grad2_0" x1="0%" y1="100%" x2="66.7%" y2="0%"><stop offset="20%" stop-color="#e80f88" stop-opacity="1"></stop><stop offset="80%" stop-color="#e80f88" stop-opacity="1"></stop></linearGradient></defs><defs><linearGradient id="grad2_1" x1="0%" y1="100%" x2="66.7%" y2="0%"><stop offset="20%" stop-color="#95055f" stop-opacity="1"></stop><stop offset="80%" stop-color="#e80f88" stop-opacity="1"></stop></linearGradient></defs><defs><linearGradient id="grad2_2" x1="0%" y1="100%" x2="66.7%" y2="0%"><stop offset="20%" stop-color="#95055f" stop-opacity="1"></stop><stop offset="80%" stop-color="#4c0033" stop-opacity="1"></stop></linearGradient></defs><g transform="translate(900, 600)"><path d="M-324.5 0C-303.9 -39.7 -283.3 -79.4 -258.7 -107.2C-234.1 -134.9 -205.4 -150.6 -185.3 -185.3C-165.2 -219.9 -153.6 -273.4 -124.2 -299.8C-94.7 -326.2 -47.4 -325.3 0 -324.5L0 0Z" fill="#6f0249"></path><path d="M-216.3 0C-202.6 -26.5 -188.9 -52.9 -172.5 -71.4C-156 -89.9 -136.9 -100.4 -123.5 -123.5C-110.1 -146.6 -102.4 -182.3 -82.8 -199.9C-63.2 -217.4 -31.6 -216.9 0 -216.3L0 0Z" fill="#be0a74"></path><path d="M-108.2 0C-101.3 -13.2 -94.4 -26.5 -86.2 -35.7C-78 -45 -68.5 -50.2 -61.8 -61.8C-55.1 -73.3 -51.2 -91.1 -41.4 -99.9C-31.6 -108.7 -15.8 -108.4 0 -108.2L0 0Z" fill="#e80f88"></path></g><g transform="translate(0, 0)"><path d="M324.5 0C300.8 33.1 277 66.2 266.1 110.2C255.1 154.2 257 209.1 229.5 229.5C201.9 249.8 144.9 235.7 101.8 245.8C58.6 255.8 29.3 290.2 0 324.5L0 0Z" fill="#6f0249"></path><path d="M216.3 0C200.5 22.1 184.7 44.1 177.4 73.5C170.1 102.8 171.3 139.4 153 153C134.6 166.5 96.6 157.1 67.9 163.8C39.1 170.6 19.5 193.4 0 216.3L0 0Z" fill="#be0a74"></path><path d="M108.2 0C100.3 11 92.3 22.1 88.7 36.7C85 51.4 85.7 69.7 76.5 76.5C67.3 83.3 48.3 78.6 33.9 81.9C19.5 85.3 9.8 96.7 0 108.2L0 0Z" fill="#e80f88"></path></g></svg>